<?xml version="1.0" encoding="UTF-8"?>
<svg xmlns="http://www.w3.org/2000/svg" viewBox="0 0 1024 1024" width="1024" height="1024">
  <defs>
    <linearGradient id="markGrad" x1="0%" y1="0%" x2="100%" y2="100%">
      <stop offset="0%"   stop-color="#22D3EE"/>
      <stop offset="100%" stop-color="#1E3A8A"/>
    </linearGradient>
    <filter id="glow" x="-50%" y="-50%" width="200%" height="200%" color-interpolation-filters="sRGB">
      <feGaussianBlur stdDeviation="20"/>
    </filter>
  </defs>
  
  <g filter="url(#glow)" opacity="0.5">
    <path fill="#4386F4" fill-rule="evenodd" d="M500.802 345.204C523.839 343.407 551.27 347.881 572.711 356.27C614.548 372.989 648.119 405.51 666.157 446.796C668.394 451.995 670.493 457.646 672.052 463.065C673.894 469.468 675.102 476.314 677.802 482.418C681.496 490.611 688.457 496.88 696.991 499.699C702.167 501.375 721.52 501.677 727.96 501.933L779.752 503.874L933.734 509.989C938.693 510.161 974.875 510.957 977.524 511.998C972.731 512.732 958.658 512.94 953.13 513.191L894.795 515.467L803.665 519.489C772.496 520.69 741.243 521.716 710.097 523.406C674.09 525.36 677.998 548.756 667.484 574.474C660.359 591.669 650.499 607.597 638.287 621.643C608.779 655.664 566.826 676.384 521.876 679.139C510.956 680.315 493.482 678.792 482.57 676.839C427.084 666.566 380.414 629.221 358.225 577.337C356.267 572.828 354.546 568.219 353.07 563.53C350.479 555.009 348.512 543.803 343.482 536.581C333.13 521.717 313.529 523.213 297.399 522.542L258.71 520.93L120.863 514.803L71.699 512.825C63.4445 512.478 52.5251 512.544 44.6117 511.153C100.449 509.431 156.274 507.361 212.085 504.942L283.823 502.51C295.048 502.122 307.999 502.144 319.094 501.27C349.832 498.849 348.739 470.015 358.263 447.586C365.039 431.625 374.277 416.826 385.64 403.729C415.687 368.725 454.901 348.679 500.802 345.204Z M505.717 389.057C573.502 385.43 631.419 437.383 635.15 505.163C638.881 572.942 587.016 630.939 519.242 634.773C451.322 638.616 393.172 586.614 389.434 518.688C385.695 450.762 437.785 392.692 505.717 389.057Z"/>
  </g>
  <path fill="url(#markGrad)" fill-rule="evenodd" d="M500.802 345.204C523.839 343.407 551.27 347.881 572.711 356.27C614.548 372.989 648.119 405.51 666.157 446.796C668.394 451.995 670.493 457.646 672.052 463.065C673.894 469.468 675.102 476.314 677.802 482.418C681.496 490.611 688.457 496.88 696.991 499.699C702.167 501.375 721.52 501.677 727.96 501.933L779.752 503.874L933.734 509.989C938.693 510.161 974.875 510.957 977.524 511.998C972.731 512.732 958.658 512.94 953.13 513.191L894.795 515.467L803.665 519.489C772.496 520.69 741.243 521.716 710.097 523.406C674.09 525.36 677.998 548.756 667.484 574.474C660.359 591.669 650.499 607.597 638.287 621.643C608.779 655.664 566.826 676.384 521.876 679.139C510.956 680.315 493.482 678.792 482.57 676.839C427.084 666.566 380.414 629.221 358.225 577.337C356.267 572.828 354.546 568.219 353.07 563.53C350.479 555.009 348.512 543.803 343.482 536.581C333.13 521.717 313.529 523.213 297.399 522.542L258.71 520.93L120.863 514.803L71.699 512.825C63.4445 512.478 52.5251 512.544 44.6117 511.153C100.449 509.431 156.274 507.361 212.085 504.942L283.823 502.51C295.048 502.122 307.999 502.144 319.094 501.27C349.832 498.849 348.739 470.015 358.263 447.586C365.039 431.625 374.277 416.826 385.64 403.729C415.687 368.725 454.901 348.679 500.802 345.204Z M505.717 389.057C573.502 385.43 631.419 437.383 635.15 505.163C638.881 572.942 587.016 630.939 519.242 634.773C451.322 638.616 393.172 586.614 389.434 518.688C385.695 450.762 437.785 392.692 505.717 389.057Z"/>
</svg>
